<?xml version="1.0" encoding="UTF-8" standalone="no"?>
<!DOCTYPE svg PUBLIC "-//W3C//DTD SVG 1.1//EN"
 "http://www.w3.org/Graphics/SVG/1.1/DTD/svg11.dtd">
<!-- Generated by graphviz version 2.43.0 (0)
 -->
<!-- Title: %3 Pages: 1 -->
<svg width="421pt" height="197pt"
 viewBox="0.00 0.00 421.00 197.00" xmlns="http://www.w3.org/2000/svg" xmlns:xlink="http://www.w3.org/1999/xlink">
<g id="graph0" class="graph" transform="scale(1 1) rotate(0) translate(4 193)">
<title>%3</title>
<polygon fill="white" stroke="transparent" points="-4,4 -4,-193 417,-193 417,4 -4,4"/>
<g id="clust1" class="cluster">
<title>cluster__legend</title>
<polygon fill="#ffffff" stroke="black" points="8,-104 8,-181 104,-181 104,-104 8,-104"/>
<text text-anchor="middle" x="56" y="-165.8" font-family="Helvetica,sans-Serif" font-size="14.00">Legend</text>
</g>
<!-- data -->
<g id="node1" class="node">
<title>data</title>
<path fill="#b4d8e4" stroke="black" d="M212,-94C212,-94 137,-94 137,-94 131,-94 125,-88 125,-82 125,-82 125,-42 125,-42 125,-36 131,-30 137,-30 137,-30 212,-30 212,-30 218,-30 224,-36 224,-42 224,-42 224,-82 224,-82 224,-88 218,-94 212,-94"/>
<text text-anchor="start" x="156" y="-72.8" font-family="Helvetica,sans-Serif" font-weight="bold" font-size="14.00">data</text>
<text text-anchor="start" x="136" y="-44.8" font-family="Helvetica,sans-Serif" font-style="italic" font-size="14.00">DataFrame</text>
</g>
<!-- plot -->
<g id="node2" class="node">
<title>plot</title>
<path fill="#b4d8e4" stroke="black" d="M401,-94C401,-94 365,-94 365,-94 359,-94 353,-88 353,-82 353,-82 353,-42 353,-42 353,-36 359,-30 365,-30 365,-30 401,-30 401,-30 407,-30 413,-36 413,-42 413,-42 413,-82 413,-82 413,-88 407,-94 401,-94"/>
<text text-anchor="start" x="367.5" y="-72.8" font-family="Helvetica,sans-Serif" font-weight="bold" font-size="14.00">plot</text>
<text text-anchor="start" x="364" y="-44.8" font-family="Helvetica,sans-Serif" font-style="italic" font-size="14.00">Tuple</text>
</g>
<!-- data&#45;&gt;plot -->
<g id="edge3" class="edge">
<title>data&#45;&gt;plot</title>
<path fill="none" stroke="black" d="M224.17,-69.98C233.7,-71.24 243.65,-72.34 253,-73 284.48,-75.22 292.58,-75.95 324,-73 330.08,-72.43 336.47,-71.53 342.7,-70.48"/>
<polygon fill="black" stroke="black" points="343.73,-73.85 352.94,-68.61 342.48,-66.96 343.73,-73.85"/>
</g>
<!-- model -->
<g id="node3" class="node">
<title>model</title>
<path fill="#b4d8e4" stroke="black" d="M312,-64C312,-64 265,-64 265,-64 259,-64 253,-58 253,-52 253,-52 253,-12 253,-12 253,-6 259,0 265,0 265,0 312,0 312,0 318,0 324,-6 324,-12 324,-12 324,-52 324,-52 324,-58 318,-64 312,-64"/>
<text text-anchor="start" x="264" y="-42.8" font-family="Helvetica,sans-Serif" font-weight="bold" font-size="14.00">model</text>
<text text-anchor="start" x="269.5" y="-14.8" font-family="Helvetica,sans-Serif" font-style="italic" font-size="14.00">Tuple</text>
</g>
<!-- data&#45;&gt;model -->
<g id="edge4" class="edge">
<title>data&#45;&gt;model</title>
<path fill="none" stroke="black" d="M224.3,-48.93C230.49,-47.27 236.81,-45.58 242.93,-43.94"/>
<polygon fill="black" stroke="black" points="244.24,-47.21 253,-41.24 242.43,-40.45 244.24,-47.21"/>
</g>
<!-- model&#45;&gt;plot -->
<g id="edge2" class="edge">
<title>model&#45;&gt;plot</title>
<path fill="none" stroke="black" d="M324.21,-43.26C330.4,-45.26 336.88,-47.37 343.18,-49.41"/>
<polygon fill="black" stroke="black" points="342.26,-52.79 352.85,-52.55 344.42,-46.13 342.26,-52.79"/>
</g>
<!-- file -->
<g id="node4" class="node">
<title>file</title>
<path fill="#b4d8e4" stroke="black" d="M71,-94C71,-94 41,-94 41,-94 35,-94 29,-88 29,-82 29,-82 29,-42 29,-42 29,-36 35,-30 41,-30 41,-30 71,-30 71,-30 77,-30 83,-36 83,-42 83,-42 83,-82 83,-82 83,-88 77,-94 71,-94"/>
<text text-anchor="start" x="43.5" y="-72.8" font-family="Helvetica,sans-Serif" font-weight="bold" font-size="14.00">file</text>
<text text-anchor="start" x="46.5" y="-44.8" font-family="Helvetica,sans-Serif" font-style="italic" font-size="14.00">str</text>
</g>
<!-- file&#45;&gt;data -->
<g id="edge1" class="edge">
<title>file&#45;&gt;data</title>
<path fill="none" stroke="black" d="M83.14,-62C92.6,-62 103.69,-62 114.8,-62"/>
<polygon fill="black" stroke="black" points="114.96,-65.5 124.96,-62 114.96,-58.5 114.96,-65.5"/>
</g>
<!-- function -->
<g id="node5" class="node">
<title>function</title>
<path fill="#b4d8e4" stroke="black" d="M84,-149.5C84,-149.5 28,-149.5 28,-149.5 22,-149.5 16,-143.5 16,-137.5 16,-137.5 16,-124.5 16,-124.5 16,-118.5 22,-112.5 28,-112.5 28,-112.5 84,-112.5 84,-112.5 90,-112.5 96,-118.5 96,-124.5 96,-124.5 96,-137.5 96,-137.5 96,-143.5 90,-149.5 84,-149.5"/>
<text text-anchor="middle" x="56" y="-127.3" font-family="Helvetica,sans-Serif" font-size="14.00">function</text>
</g>
</g>
</svg>
