<?xml version="1.0" encoding="UTF-8" standalone="no"?>
<!DOCTYPE svg PUBLIC "-//W3C//DTD SVG 1.1//EN"
 "http://www.w3.org/Graphics/SVG/1.1/DTD/svg11.dtd">
<!-- Generated by graphviz version 2.43.0 (0)
 -->
<!-- Title: %3 Pages: 1 -->
<svg width="421pt" height="167pt"
 viewBox="0.00 0.00 421.00 167.00" xmlns="http://www.w3.org/2000/svg" xmlns:xlink="http://www.w3.org/1999/xlink">
<g id="graph0" class="graph" transform="scale(1 1) rotate(0) translate(4 163)">
<title>%3</title>
<polygon fill="white" stroke="transparent" points="-4,4 -4,-163 417,-163 417,4 -4,4"/>
<g id="clust1" class="cluster">
<title>cluster__legend</title>
<polygon fill="#ffffff" stroke="black" points="8,-74 8,-151 104,-151 104,-74 8,-74"/>
<text text-anchor="middle" x="56" y="-135.8" font-family="Helvetica,sans-Serif" font-size="14.00">Legend</text>
</g>
<!-- data -->
<g id="node1" class="node">
<title>data</title>
<path fill="#b4d8e4" stroke="black" d="M212,-64C212,-64 137,-64 137,-64 131,-64 125,-58 125,-52 125,-52 125,-12 125,-12 125,-6 131,0 137,0 137,0 212,0 212,0 218,0 224,-6 224,-12 224,-12 224,-52 224,-52 224,-58 218,-64 212,-64"/>
<text text-anchor="start" x="156" y="-42.8" font-family="Helvetica,sans-Serif" font-weight="bold" font-size="14.00">data</text>
<text text-anchor="start" x="136" y="-14.8" font-family="Helvetica,sans-Serif" font-style="italic" font-size="14.00">DataFrame</text>
</g>
<!-- model -->
<g id="node3" class="node">
<title>model</title>
<path fill="#b4d8e4" stroke="black" d="M312,-94C312,-94 265,-94 265,-94 259,-94 253,-88 253,-82 253,-82 253,-42 253,-42 253,-36 259,-30 265,-30 265,-30 312,-30 312,-30 318,-30 324,-36 324,-42 324,-42 324,-82 324,-82 324,-88 318,-94 312,-94"/>
<text text-anchor="start" x="264" y="-72.8" font-family="Helvetica,sans-Serif" font-weight="bold" font-size="14.00">model</text>
<text text-anchor="start" x="269.5" y="-44.8" font-family="Helvetica,sans-Serif" font-style="italic" font-size="14.00">Tuple</text>
</g>
<!-- data&#45;&gt;model -->
<g id="edge2" class="edge">
<title>data&#45;&gt;model</title>
<path fill="none" stroke="black" d="M224.3,-45.07C230.49,-46.73 236.81,-48.42 242.93,-50.06"/>
<polygon fill="black" stroke="black" points="242.43,-53.55 253,-52.76 244.24,-46.79 242.43,-53.55"/>
</g>
<!-- plot -->
<g id="node4" class="node">
<title>plot</title>
<path fill="#b4d8e4" stroke="black" d="M401,-64C401,-64 365,-64 365,-64 359,-64 353,-58 353,-52 353,-52 353,-12 353,-12 353,-6 359,0 365,0 365,0 401,0 401,0 407,0 413,-6 413,-12 413,-12 413,-52 413,-52 413,-58 407,-64 401,-64"/>
<text text-anchor="start" x="367.5" y="-42.8" font-family="Helvetica,sans-Serif" font-weight="bold" font-size="14.00">plot</text>
<text text-anchor="start" x="364" y="-14.8" font-family="Helvetica,sans-Serif" font-style="italic" font-size="14.00">Tuple</text>
</g>
<!-- data&#45;&gt;plot -->
<g id="edge4" class="edge">
<title>data&#45;&gt;plot</title>
<path fill="none" stroke="black" d="M224.17,-24.02C233.7,-22.76 243.65,-21.66 253,-21 284.48,-18.78 292.58,-18.05 324,-21 330.08,-21.57 336.47,-22.47 342.7,-23.52"/>
<polygon fill="black" stroke="black" points="342.48,-27.04 352.94,-25.39 343.73,-20.15 342.48,-27.04"/>
</g>
<!-- file -->
<g id="node2" class="node">
<title>file</title>
<path fill="#b4d8e4" stroke="black" d="M71,-64C71,-64 41,-64 41,-64 35,-64 29,-58 29,-52 29,-52 29,-12 29,-12 29,-6 35,0 41,0 41,0 71,0 71,0 77,0 83,-6 83,-12 83,-12 83,-52 83,-52 83,-58 77,-64 71,-64"/>
<text text-anchor="start" x="43.5" y="-42.8" font-family="Helvetica,sans-Serif" font-weight="bold" font-size="14.00">file</text>
<text text-anchor="start" x="46.5" y="-14.8" font-family="Helvetica,sans-Serif" font-style="italic" font-size="14.00">str</text>
</g>
<!-- file&#45;&gt;data -->
<g id="edge1" class="edge">
<title>file&#45;&gt;data</title>
<path fill="none" stroke="black" d="M83.14,-32C92.6,-32 103.69,-32 114.8,-32"/>
<polygon fill="black" stroke="black" points="114.96,-35.5 124.96,-32 114.96,-28.5 114.96,-35.5"/>
</g>
<!-- model&#45;&gt;plot -->
<g id="edge3" class="edge">
<title>model&#45;&gt;plot</title>
<path fill="none" stroke="black" d="M324.21,-50.74C330.4,-48.74 336.88,-46.63 343.18,-44.59"/>
<polygon fill="black" stroke="black" points="344.42,-47.87 352.85,-41.45 342.26,-41.21 344.42,-47.87"/>
</g>
<!-- function -->
<g id="node5" class="node">
<title>function</title>
<path fill="#b4d8e4" stroke="black" d="M84,-119.5C84,-119.5 28,-119.5 28,-119.5 22,-119.5 16,-113.5 16,-107.5 16,-107.5 16,-94.5 16,-94.5 16,-88.5 22,-82.5 28,-82.5 28,-82.5 84,-82.5 84,-82.5 90,-82.5 96,-88.5 96,-94.5 96,-94.5 96,-107.5 96,-107.5 96,-113.5 90,-119.5 84,-119.5"/>
<text text-anchor="middle" x="56" y="-97.3" font-family="Helvetica,sans-Serif" font-size="14.00">function</text>
</g>
</g>
</svg>
